<svg class="logo" width="135" height="48" aria-hidden="true" role="img" version="1.1" viewBox="0 0 17.9 6.35" xmlns="http://www.w3.org/2000/svg"><rect width="6.35" height="6.35" ry=".0682" fill="#149eca" stroke-linecap="round" stroke-linejoin="round" stroke-width="1.43"/><path d="m6.03 1.4-1.05.306-.0804.0326-1.58.762-.591.24-.137-.354v-.0975l.13-.357h.0975v-.0973h-1.49v.0973h.0975l.13.357v.0975l-.779 2.01v.0975l.469.519h1.66l.469-.519v-.0975l-.569-1.47.594-.241 1.66-.554.0804-.0326.966-.514-.0756-.186z" fill="#fff" stroke-width=".375"/><path d="m17.1 1.96c-.107 0-.212.0129-.315.0389-.103.0249-.194.0636-.275.117-.08.0519-.145.118-.195.199-.0486.08-.0729.175-.0729.284 0 .0886.0139.166.042.232.0292.0659.0689.125.119.178.0508.0519.11.0995.178.143.0681.0432.142.0858.22.128.0735.0335.142.066.206.0973.0648.0303.121.0621.168.0956.0476.0335.0844.071.11.112.027.04.0406.0873.0406.142 0 .103-.04.181-.12.235-.0789.054-.199.0811-.361.0811-.0465 0-.0975-.00503-.153-.0148-.0551-.00973-.11-.0233-.165-.0406-.0551-.0184-.108-.0404-.157-.0664-.0486-.0259-.0906-.0549-.126-.0874v.397c.0324.0205.075.0388.128.055s.109.0298.168.0406c.0594.0119.117.0204.174.0258.0573.00649.105.00965.144.00965.117 0 .228-.0113.332-.034.105-.0227.197-.0593.277-.11.081-.0508.145-.117.193-.198.0476-.081.0712-.181.0712-.298 0-.0875-.0161-.165-.0485-.233-.0313-.0692-.0745-.132-.13-.188-.054-.0562-.117-.108-.19-.154-.0713-.0465-.148-.0909-.229-.133-.0789-.0346-.149-.0664-.209-.0956-.0594-.0303-.11-.0611-.152-.0925-.0411-.0313-.0723-.0657-.0939-.104-.0216-.0378-.0326-.0829-.0326-.135 0-.0551.0142-.102.0422-.141.0281-.0389.0643-.0707.109-.0956.0454-.0249.0961-.0428.152-.0536.0573-.0108.115-.0162.172-.0162.207 0 .377.0476.509.143v-.381c-.111-.0551-.288-.0825-.532-.0825zm-9.19.0389v1.52c0 .239-.0328.415-.0987.528-.0659.112-.174.168-.323.168-.0562 0-.116-.0107-.18-.0323v.155c.0573.0162.116.0244.177.0244.389 0 .583-.28.583-.841v-1.52zm7.51 0v1.43c0 .398-.129.597-.386.597-.0972 0-.177-.0211-.238-.0633v.363c.0681.0249.155.0372.261.0372.227 0 .408-.076.545-.228.136-.153.204-.368.204-.644v-1.49zm-6.17.624c-.22 0-.4.0832-.538.25-.137.165-.206.369-.206.611 0 .28.0659.497.198.65.132.153.305.23.519.23.212 0 .403-.0611.575-.183v-.159c-.177.137-.359.206-.545.206-.184 0-.328-.0643-.434-.193-.105-.129-.157-.307-.157-.535h1.23v-.0664c0-.251-.0551-.448-.165-.593-.11-.145-.268-.217-.475-.217zm4.72 0c-.22 0-.4.0832-.538.25-.137.165-.206.369-.206.611 0 .28.0659.497.198.65.132.153.305.23.519.23.212 0 .403-.0611.575-.183v-.159c-.177.137-.359.206-.545.206-.184 0-.328-.0643-.434-.193-.105-.129-.157-.307-.157-.535h1.23v-.0664c0-.251-.0552-.448-.165-.593-.11-.145-.268-.217-.475-.217zm-3.76.0406v.136h1.02l-1.1 1.47v.0567h1.31v-.136h-1.07l1.11-1.48v-.0406zm1.4 0 .642 1.66h.136l.66-1.66h-.162l-.511 1.33c-.0173.0432-.0328.0987-.0468.167h-.0066c-.0097-.0519-.0264-.11-.0502-.173l-.494-1.32zm-2.36.0956c.15 0 .268.0529.353.159.0854.106.131.254.138.446h-1.07c.0238-.194.0865-.344.188-.447.103-.105.232-.157.387-.157zm4.72 0c.15 0 .268.0529.353.159.0853.106.131.254.138.446h-1.07c.0238-.194.0865-.344.188-.447.103-.105.232-.157.387-.157z" fill="#fff" stroke-linecap="round" stroke-linejoin="round" stroke-width=".905" style="white-space:pre"/></svg>
